HIERARCHY
ROOT Hips
{
	OFFSET 0.000000 0.000000 0.000000
	CHANNELS 6 Xposition Yposition Zposition Xrotation Yrotation Zrotation
	JOINT LeftUpLeg_virtual
	{
		OFFSET 0.000000 0.000000 0.000000
		CHANNELS 3 Xrotation Yrotation Zrotation
		JOINT LeftUpLeg
		{
			OFFSET 10.205400 -3.823500 0.155100
			CHANNELS 3 Xrotation Yrotation Zrotation
			JOINT LeftLeg
			{
				OFFSET 0.708757 -12.982077 0.567790
				CHANNELS 3 Xrotation Yrotation Zrotation
				JOINT LeftFoot
				{
					OFFSET -0.708756 -10.717838 -2.184338
					CHANNELS 3 Xrotation Yrotation Zrotation
					JOINT LeftToeBase
					{
						OFFSET 0.108149 -7.191104 7.560241
						CHANNELS 3 Xrotation Yrotation Zrotation
						JOINT LeftToe_End
						{
							OFFSET 0.070230 0.081724 4.490308
							CHANNELS 3 Xrotation Yrotation Zrotation
							End Site
							{
								OFFSET 0 0 0
							}
						}
					}
				}
			}
		}
	}
	JOINT RightUpLeg_virtual
	{
		OFFSET 0.000000 0.000000 0.000000
		CHANNELS 3 Xrotation Yrotation Zrotation
		JOINT RightUpLeg
		{
			OFFSET -10.205400 -3.823500 0.005500
			CHANNELS 3 Xrotation Yrotation Zrotation
			JOINT RightLeg
			{
				OFFSET -0.708756 -12.982134 0.610632
				CHANNELS 3 Xrotation Yrotation Zrotation
				JOINT RightFoot
				{
					OFFSET 0.708754 -10.717769 -1.945823
					CHANNELS 3 Xrotation Yrotation Zrotation
					JOINT RightToeBase
					{
						OFFSET -0.108140 -7.191069 7.372968
						CHANNELS 3 Xrotation Yrotation Zrotation
						JOINT RightToe_End
						{
							OFFSET -0.070227 0.081735 4.479403
							CHANNELS 3 Xrotation Yrotation Zrotation
							End Site
							{
								OFFSET 0 0 0
							}
						}
					}
				}
			}
		}
	}
	JOINT Spine_virtual
	{
		OFFSET 0.000000 0.000000 0.000000
		CHANNELS 3 Xrotation Yrotation Zrotation
		JOINT Spine
		{
			OFFSET 0.000000 6.876099 0.125700
			CHANNELS 3 Xrotation Yrotation Zrotation
			JOINT Spine1
			{
				OFFSET 0.000000 5.730043 0.104720
				CHANNELS 3 Xrotation Yrotation Zrotation
				JOINT Spine1_split
				{
					OFFSET 0.000000 5.730043 0.104720
					CHANNELS 3 Xrotation Yrotation Zrotation
					JOINT Spine2
					{
						OFFSET 0.000000 5.730043 0.104720
						CHANNELS 3 Xrotation Yrotation Zrotation
						JOINT Neck_virtual
						{
							OFFSET 0.000000 0.000000 0.000000
							CHANNELS 3 Xrotation Yrotation Zrotation
							JOINT Neck
							{
								OFFSET 0.000000 10.314075 0.188496
								CHANNELS 3 Xrotation Yrotation Zrotation
								JOINT Head
								{
									OFFSET 0.000000 7.643700 -2.377400
									CHANNELS 3 Xrotation Yrotation Zrotation
									JOINT HeadTop_End
									{
										OFFSET 0.000000 43.788605 -13.619600
										CHANNELS 3 Xrotation Yrotation Zrotation
										End Site
										{
											OFFSET 0 0 0
										}
									}
								}
							}
						}
						JOINT LeftShoulder_virtual
						{
							OFFSET 0.000000 0.000000 0.000000
							CHANNELS 3 Xrotation Yrotation Zrotation
							JOINT LeftShoulder
							{
								OFFSET 2.196100 4.412489 0.087492
								CHANNELS 3 Xrotation Yrotation Zrotation
								JOINT LeftShoulder_split
								{
									OFFSET 2.196100 4.412489 0.087492
									CHANNELS 3 Xrotation Yrotation Zrotation
									JOINT LeftArm
									{
										OFFSET 8.771219 -2.981674 -0.026999
										CHANNELS 3 Xrotation Yrotation Zrotation
										JOINT LeftForeArm
										{
											OFFSET 8.512804 0.000000 -0.000000
											CHANNELS 3 Xrotation Yrotation Zrotation
											JOINT LeftHand
											{
												OFFSET 18.484802 0.000000 -0.000000
												CHANNELS 3 Xrotation Yrotation Zrotation
												End Site
												{
													OFFSET 0 0 0
												}
											}
										}
									}
								}
							}
						}
						JOINT RightShoulder_virtual
						{
							OFFSET 0.000000 0.000000 0.000000
							CHANNELS 3 Xrotation Yrotation Zrotation
							JOINT RightShoulder
							{
								OFFSET -2.196100 4.412496 0.070690
								CHANNELS 3 Xrotation Yrotation Zrotation
								JOINT RightShoulder_split
								{
									OFFSET -2.196100 4.412496 0.070690
									CHANNELS 3 Xrotation Yrotation Zrotation
									JOINT RightArm
									{
										OFFSET -8.771282 -2.981682 -0.094208
										CHANNELS 3 Xrotation Yrotation Zrotation
										JOINT RightForeArm
										{
											OFFSET -8.494598 0.000000 0.000000
											CHANNELS 3 Xrotation Yrotation Zrotation
											JOINT RightHand
											{
												OFFSET -18.483803 0.000000 0.000001
												CHANNELS 3 Xrotation Yrotation Zrotation
												End Site
												{
													OFFSET 0 0 0
												}
											}
										}
									}
								}
							}
						}
					}
				}
			}
		}
	}
}
MOTION
Frames: 11
Frame Time: 0.03333333
0.977360 32.273769 1.349792 0.000000 0.000000 0.000000 -31.257343 -42.226405 -19.908844 -1.222292 11.602950 4.839743 39.678188 1.307901 -4.195712 -18.193076 5.786342 3.239900 -5.798355 0.298630 -0.198061 0.000000 0.000000 0.000000 -28.565238 -38.600018 -17.884295 22.270221 -10.997559 -6.398031 20.705855 9.523701 -4.833707 -23.368633 -15.630536 7.140395 -2.992417 0.368174 0.048017 0.000000 0.000000 0.000000 -30.608216 -40.780894 -19.861485 11.095756 -4.585458 0.238417 3.328742 -1.312977 0.035880 0.528204 1.157432 0.052757 0.000000 0.000000 0.000000 3.561266 -2.194303 0.020859 1.792759 1.812714 -3.502047 -6.517108 -1.126059 4.006717 0.000000 0.000000 0.000000 3.620263 -2.529722 0.189708 0.958469 -15.387936 -11.092027 0.609990 -1.033657 -0.595707 -20.682462 -0.035491 -38.776449 2.404655 -68.011001 2.178903 0.000000 0.000000 0.000000 2.719257 -2.459622 0.161289 -0.090675 11.220743 16.159859 2.175945 3.765997 -2.005453 -10.151517 -7.087129 61.880127 -0.292092 42.619107 1.200083 0.000000 0.000000 0.000000 
1.177457 32.280231 1.704014 0.000000 0.000000 0.000000 -32.221424 -44.404306 -21.609614 1.066108 13.412707 5.187267 37.618312 1.325424 -6.125416 -19.762785 7.253415 6.969916 -5.863620 0.180385 0.202902 0.000000 0.000000 0.000000 -29.394706 -40.190991 -19.242712 21.122261 -10.968191 -7.084508 21.197463 9.854278 -5.934244 -21.542215 -15.603975 8.647491 -2.761786 0.309489 -0.346615 0.000000 0.000000 0.000000 -31.716468 -42.529727 -21.401920 11.119946 -4.612315 0.118894 3.365979 -1.291964 0.020828 0.468739 1.112606 0.048122 0.000000 0.000000 0.000000 3.525060 -2.169758 0.027573 1.885527 1.747600 -3.484518 -6.450329 -0.976692 3.827401 0.000000 0.000000 0.000000 3.636359 -2.485978 0.188341 1.005232 -15.494264 -11.040139 0.461034 -0.953133 -0.620963 -20.515458 -0.106798 -38.700402 2.408365 -68.117681 2.167188 0.000000 0.000000 0.000000 2.805402 -2.405221 0.152976 -0.059023 11.229692 16.169614 2.190334 3.774410 -1.961927 -10.166793 -7.162169 62.001370 -0.224726 42.500603 1.158939 0.000000 0.000000 0.000000 
1.384159 32.274235 2.084808 0.000000 0.000000 0.000000 -33.444537 -46.482709 -23.453292 3.171791 14.634389 5.253955 35.879653 1.293507 -7.711726 -21.293313 8.764155 9.854460 -5.779455 0.108582 0.388350 0.000000 0.000000 0.000000 -30.308719 -41.802793 -20.667920 20.113454 -10.700509 -7.537491 21.910615 9.471089 -7.052035 -20.183656 -15.923695 9.208407 -2.276804 0.270204 -0.472923 0.000000 0.000000 0.000000 -32.968490 -44.206091 -23.060570 11.090454 -4.590530 -0.036536 3.404554 -1.268441 0.024315 0.473085 1.036946 0.089041 0.000000 0.000000 0.000000 3.528260 -2.148621 0.045309 2.017655 1.687572 -3.474331 -6.412044 -0.913318 3.671449 0.000000 0.000000 0.000000 3.688550 -2.449875 0.199864 1.072484 -15.541757 -10.887165 0.276075 -0.931858 -0.729572 -20.400455 -0.155969 -38.694681 2.420186 -68.161122 2.176879 0.000000 0.000000 0.000000 2.925903 -2.356407 0.166047 -0.021885 11.266603 16.185429 2.227464 3.789249 -1.904661 -10.093414 -7.238302 62.010482 -0.160782 42.546170 1.115949 0.000000 0.000000 0.000000 
1.586373 32.277756 2.487055 0.000000 0.000000 0.000000 -34.809332 -48.226019 -25.320153 5.005311 15.269093 4.995389 34.490191 1.249541 -8.797103 -22.499690 10.254676 11.818975 -5.434566 0.110955 0.309643 0.000000 0.000000 0.000000 -31.421189 -43.515654 -22.269577 19.245404 -10.208057 -7.562130 22.980742 8.351398 -8.115688 -19.305605 -16.479377 8.816777 -1.937774 0.258289 -0.339860 0.000000 0.000000 0.000000 -34.372613 -45.831266 -24.844748 10.998223 -4.532425 -0.178524 3.445995 -1.265328 0.046361 0.571269 0.886749 0.218145 0.000000 0.000000 0.000000 3.584104 -2.139275 0.077837 2.124252 1.623999 -3.448288 -6.472596 -0.940305 3.553379 0.000000 0.000000 0.000000 3.768239 -2.434736 0.221726 1.142088 -15.558645 -10.679024 0.132630 -0.929881 -0.884302 -20.409688 -0.137256 -38.754565 2.447801 -68.173436 2.219599 0.000000 0.000000 0.000000 3.045834 -2.332411 0.195097 0.011769 11.314943 16.225594 2.275023 3.834268 -1.852219 -9.959076 -7.327693 61.890345 -0.126967 42.720590 1.087854 0.000000 0.000000 0.000000 
1.788151 32.320721 2.885504 0.000000 0.000000 0.000000 -36.283553 -49.671653 -27.248454 6.685142 15.557120 4.340391 33.212143 1.473125 -9.371957 -23.332063 11.675478 13.097649 -4.990157 0.184982 0.019487 0.000000 0.000000 0.000000 -32.717497 -45.325497 -24.050508 18.495987 -9.551914 -7.085418 24.412493 6.796572 -8.997290 -18.850786 -17.028488 7.946189 -2.162651 0.293375 -0.045166 0.000000 0.000000 0.000000 -35.818588 -47.415645 -26.716959 10.873757 -4.456699 -0.254491 3.472865 -1.283011 0.073484 0.663812 0.729927 0.357912 0.000000 0.000000 0.000000 3.684945 -2.147140 0.114703 2.150944 1.550329 -3.407319 -6.633600 -1.024521 3.489022 0.000000 0.000000 0.000000 3.849920 -2.438789 0.247372 1.194139 -15.559941 -10.480954 0.119969 -0.947434 -0.985118 -20.560512 -0.064303 -38.873451 2.481711 -68.181851 2.288805 0.000000 0.000000 0.000000 3.140354 -2.340762 0.228135 0.034818 11.363959 16.314853 2.328725 3.939347 -1.808593 -9.809145 -7.428772 61.685624 -0.144098 42.968672 1.091346 0.000000 0.000000 0.000000 
2.008554 32.413197 3.271452 0.000000 0.000000 0.000000 -37.907307 -50.994677 -29.307146 8.226061 15.695788 3.334374 31.927610 1.989947 -9.516795 -23.800627 12.991337 13.742037 -4.574997 0.309948 -0.367289 0.000000 0.000000 0.000000 -34.297962 -47.230649 -26.082107 17.819673 -8.889729 -6.139242 26.260406 5.051490 -9.575986 -18.728826 -17.373812 6.959343 -3.004034 0.354959 0.335370 0.000000 0.000000 0.000000 -37.329514 -49.030311 -28.704888 10.750887 -4.390834 -0.243931 3.473747 -1.322666 0.091721 0.756563 0.580728 0.416353 0.000000 0.000000 0.000000 3.809849 -2.167526 0.144853 2.098703 1.491186 -3.359633 -6.843146 -1.125796 3.482067 0.000000 0.000000 0.000000 3.911362 -2.459258 0.266049 1.210219 -15.592444 -10.364653 0.244754 -0.968255 -0.988103 -20.816526 0.041064 -39.037857 2.499202 -68.185369 2.358356 0.000000 0.000000 0.000000 3.191414 -2.379131 0.246770 0.046240 11.405404 16.433370 2.386525 4.106148 -1.780423 -9.672727 -7.543172 61.485281 -0.209752 43.198874 1.135377 0.000000 0.000000 0.000000 
2.233474 32.542233 3.621853 0.000000 0.000000 0.000000 -39.767359 -52.396232 -31.582600 9.692369 15.947296 2.166454 30.745157 2.671116 -9.465134 -23.998928 14.055711 13.815027 -4.318751 0.427507 -0.679618 0.000000 0.000000 0.000000 -36.217170 -49.215782 -28.407324 17.390070 -8.446890 -4.829792 28.484744 3.235238 -9.719191 -19.118977 -17.467468 5.823579 -4.033172 0.414932 0.790452 0.000000 0.000000 0.000000 -38.965092 -50.636372 -30.836600 10.676765 -4.342647 -0.144897 3.451004 -1.370313 0.085508 0.790506 0.422642 0.423584 0.000000 0.000000 0.000000 3.932429 -2.193801 0.160480 2.002694 1.436697 -3.326369 -7.027451 -1.195370 3.513191 0.000000 0.000000 0.000000 3.937598 -2.488535 0.263347 1.188995 -15.658646 -10.357371 0.435344 -0.982588 -0.878749 -21.103551 0.132990 -39.234662 2.485429 -68.187971 2.397305 0.000000 0.000000 0.000000 3.203164 -2.428723 0.236794 0.044485 11.448235 16.556865 2.438559 4.277101 -1.767066 -9.561183 -7.628823 61.369625 -0.302641 43.316831 1.209884 0.000000 0.000000 0.000000 
2.476063 32.673004 3.915184 0.000000 0.000000 0.000000 -42.171091 -54.043476 -34.323186 11.019233 16.380749 1.006975 29.917673 3.412041 -9.396219 -24.132621 14.858692 13.429113 -4.217285 0.516894 -0.815925 0.000000 0.000000 0.000000 -38.516779 -51.255181 -31.043667 17.412707 -8.428099 -3.408846 30.821789 1.401529 -9.357265 -20.126687 -17.473193 4.437867 -4.933594 0.453184 1.275606 0.000000 0.000000 0.000000 -40.893773 -52.271492 -33.254709 10.666101 -4.305877 -0.000564 3.411164 -1.403564 0.056351 0.771307 0.347580 0.326131 0.000000 0.000000 0.000000 4.025575 -2.216834 0.152852 1.917411 1.394506 -3.328548 -7.110955 -1.206741 3.574796 0.000000 0.000000 0.000000 3.926859 -2.511065 0.238380 1.138060 -15.728240 -10.460662 0.629932 -0.978631 -0.690383 -21.354928 0.178728 -39.417551 2.434127 -68.166709 2.390666 0.000000 0.000000 0.000000 3.189187 -2.471206 0.193768 0.030812 11.475424 16.643448 2.523763 4.418472 -1.782013 -9.507383 -7.668061 61.393142 -0.389694 43.316827 1.294837 0.000000 0.000000 0.000000 
2.729126 32.746552 4.150767 0.000000 0.000000 0.000000 -45.258073 -55.922666 -37.623930 12.112264 16.889345 0.019584 29.719676 4.099252 -9.458523 -24.542103 15.472349 12.895336 -4.082013 0.568892 -0.767237 0.000000 0.000000 0.000000 -41.246198 -53.360986 -34.060391 17.970909 -8.949769 -2.151566 32.952138 -0.499715 -8.561541 -21.392716 -17.734173 3.129341 -6.110759 0.392963 1.697162 0.000000 0.000000 0.000000 -43.197999 -53.932912 -35.972605 10.696034 -4.271230 0.125214 3.372204 -1.420027 0.016528 0.737788 0.329520 0.210524 0.000000 0.000000 0.000000 4.067905 -2.231283 0.130665 1.893184 1.372827 -3.369254 -7.063429 -1.169512 3.639726 0.000000 0.000000 0.000000 3.894832 -2.526611 0.197139 1.073608 -15.785513 -10.636667 0.732159 -0.907043 -0.508886 -21.509618 0.185530 -39.530037 2.360400 -68.113324 2.346295 0.000000 0.000000 0.000000 3.158123 -2.497306 0.129104 0.004502 11.472676 16.655322 2.647051 4.496293 -1.806421 -9.509064 -7.665327 61.541282 -0.440763 43.203235 1.371025 0.000000 0.000000 0.000000 
2.959558 32.752884 4.319084 0.000000 0.000000 0.000000 -48.976056 -57.854817 -41.438860 12.933414 17.402186 -0.709025 30.203698 4.854776 -9.688365 -25.532757 16.071674 12.572424 -3.822031 0.599515 -0.580319 0.000000 0.000000 0.000000 -44.369199 -55.563934 -37.444183 19.208229 -10.035750 -1.271388 34.605133 -2.433586 -7.415626 -22.430831 -18.525322 2.278808 -7.722693 0.241677 1.914295 0.000000 0.000000 0.000000 -45.961665 -55.602296 -39.036546 10.745123 -4.237673 0.178490 3.357143 -1.411135 -0.017796 0.591406 0.409984 0.164281 0.000000 0.000000 0.000000 4.050867 -2.237578 0.100742 1.939117 1.365439 -3.439070 -6.898920 -1.115939 3.677608 0.000000 0.000000 0.000000 3.865176 -2.529684 0.147250 1.017454 -15.789850 -10.827921 0.689709 -0.786604 -0.363148 -21.533244 0.134625 -39.531513 2.297141 -68.022277 2.299470 0.000000 0.000000 0.000000 3.134011 -2.498500 0.061482 -0.033896 11.438326 16.599296 2.787418 4.483352 -1.831852 -9.582574 -7.644824 61.748462 -0.445383 43.030663 1.430674 0.000000 0.000000 0.000000 
3.153775 32.692066 4.465942 0.000000 0.000000 0.000000 -53.097720 -59.679611 -45.621166 13.561305 17.823338 -1.176494 31.144211 5.798604 -10.093399 -27.076757 16.812572 12.565957 -3.542470 0.630492 -0.322057 0.000000 0.000000 0.000000 -47.972913 -57.816677 -41.282322 21.163568 -11.568911 -0.697793 35.462031 -4.340642 -6.135550 -23.418379 -19.867262 1.799527 -9.136569 0.099235 1.851614 0.000000 0.000000 0.000000 -49.147562 -57.252582 -42.385425 10.785583 -4.203385 0.104214 3.383296 -1.381050 -0.028732 0.453924 0.603953 0.152291 0.000000 0.000000 0.000000 3.984520 -2.235664 0.073990 2.050682 1.382023 -3.515956 -6.648279 -1.061434 3.667780 0.000000 0.000000 0.000000 3.863454 -2.516577 0.106089 0.985037 -15.747811 -10.989784 0.486844 -0.667601 -0.308409 -21.452082 0.017240 -39.408624 2.281519 -67.904177 2.293106 0.000000 0.000000 0.000000 3.126377 -2.479118 0.007212 -0.072883 11.371527 16.483588 2.942186 4.371421 -1.849100 -9.707048 -7.668353 61.951988 -0.412257 42.872916 1.470587 0.000000 0.000000 0.000000 
